<svg width="145" height="41" viewBox="0 0 145 41" fill="none" xmlns="http://www.w3.org/2000/svg">
<g clip-path="url(#clip0_123_9041)">
<path d="M4.37204 10.9175L2.87364 9.30103C1.04272 12.3732 0 15.9279 0 19.547H1.03041C1.03451 16.1612 2.23734 13.085 4.37204 10.9175Z" fill="url(#paint0_linear_123_9041)"/>
<path d="M4.10521 26.793C2.23323 25.0559 1.03041 22.7035 1.03041 19.563V19.5469H0C0 23.2263 0.669149 26.6443 1.99513 29.628L4.10521 26.793Z" fill="url(#paint1_linear_123_9041)"/>
<path d="M36.9303 16.9373L35.0132 18.8755C37.6651 18.9117 39.2949 20.9182 39.2415 23.4797H40.272C40.272 20.9544 39.0609 18.6583 36.9303 16.9373Z" fill="url(#paint2_linear_123_9041)"/>
<path d="M40.2721 23.4797H39.2417C39.1924 25.5868 38.043 27.3521 35.4937 28.6671L38.1826 32.2982C39.4962 29.9217 40.2721 27.0103 40.2721 23.4797Z" fill="url(#paint3_linear_123_9041)"/>
<path d="M5.44771 16.5994C5.37382 16.9855 5.33276 17.3916 5.33276 17.8058C5.33276 23.8376 9.92239 27.6899 15.7189 27.6899C26.7332 27.6899 30.0051 18.8714 34.9354 18.8714C34.96 18.8714 34.9888 18.8714 35.0134 18.8714L36.9305 16.9332C34.5536 15.0151 31.019 13.8127 26.7373 13.8127C18.0179 13.8127 13.3708 20.9463 9.41334 20.9463C7.68915 20.9463 6.37138 19.0926 6.37138 17.2951C6.37138 17.1101 6.3837 16.9292 6.40422 16.7522L5.45181 16.5954L5.44771 16.5994Z" fill="url(#paint4_linear_123_9041)"/>
<path d="M12.2786 7.74882C18.6458 7.74882 23.063 12.4657 28.7446 12.4657C35.5551 12.4657 39.3278 9.21656 40.2761 2.86308L39.2457 2.69419C38.9583 4.37505 37.8376 6.39771 35.8302 6.39771C33.9377 6.39771 31.9302 4.76912 29.0073 3.19684C26.0721 1.57228 22.7182 0 18.5267 0C11.7942 0 6.10848 3.88849 2.87769 9.301L4.37609 10.9175C6.30964 8.95518 9.00676 7.74882 12.2786 7.74882Z" fill="url(#paint5_linear_123_9041)"/>
<path d="M18.9332 31.2286C14.0029 31.2286 7.76708 30.1831 4.10934 26.7932L1.99927 29.6281C5.03712 36.4762 11.5192 41.0001 21.2281 41.0001C27.6486 41.0001 34.7506 38.5109 38.1867 32.2942L35.4977 28.6631C32.3326 30.2957 27.0082 31.2246 18.9373 31.2246L18.9332 31.2286Z" fill="url(#paint6_linear_123_9041)"/>
<path d="M57.1938 30.6776C50.8184 30.6776 47.2961 26.572 47.2961 20.5C47.2961 14.428 51.1099 10.2581 57.3128 10.2581C59.7883 10.2581 61.8532 10.8291 63.4583 11.7137L62.7892 15.9641C61.2744 15.0232 59.4968 14.2873 57.4278 14.2873C53.963 14.2873 52.2799 16.7925 52.2799 20.4719C52.2799 24.1513 54.0246 26.7771 57.4894 26.7771C58.5978 26.7771 59.386 26.576 60.1988 26.1498V22.6433H56.7053L56.1223 19.0202H64.538V28.6027C62.4403 29.9458 59.9689 30.6857 57.202 30.6857" fill="#0069B4"/>
<path d="M74.0826 30.5368C71.3732 30.5368 69.103 29.9698 67.0627 29.057L67.7894 24.891C69.8543 25.9768 72.1573 26.7167 74.1689 26.7167C75.5934 26.7167 76.5868 26.1175 76.5868 24.9473C76.5868 23.7772 76.0039 23.3187 73.1795 22.2652C69.1646 20.7532 67.4158 19.4705 67.4158 16.2173C67.4158 12.4254 70.4413 10.3987 74.2838 10.3987C76.9111 10.3987 78.5984 10.8852 80.3431 11.7096L79.5877 15.8152C77.7855 14.7858 75.8889 14.2188 74.3454 14.2188C72.8018 14.2188 72.1039 14.8461 72.1039 15.7589C72.1039 16.7562 72.6581 17.2427 75.1623 18.1837C79.5344 19.752 81.2791 21.2318 81.2791 24.3723C81.2791 28.6508 78.077 30.5328 74.0868 30.5328" fill="#0069B4"/>
<path d="M107.794 20.7414L108.747 22.4182C111.608 21.9276 114.359 20.295 116.091 17.7456C117.828 20.295 120.578 21.9276 123.439 22.4182L124.392 20.7414C120.558 20.0618 117.22 17.5566 117.22 13.3142V12.7593H123.37V10.8452H108.817V12.7593H114.966V13.3142C114.966 17.5566 111.629 20.0618 107.794 20.7414Z" fill="#878787"/>
<path d="M124.979 26.3428H107.208V28.2569H124.979V26.3428Z" fill="#878787"/>
<path d="M103.697 10.7607H101.542V30.0986H103.697V10.7607Z" fill="#878787"/>
<path d="M97.2399 17.3674H90.6059V10.7566H88.4507V24.6377C88.4507 25.1926 88.9392 25.6792 89.5262 25.6792H99.3952V10.7606H97.2399V17.3714V17.3674ZM97.2399 23.7772H90.6059V19.1488H97.2399V23.7772Z" fill="#878787"/>
<path d="M145 19.4263H127.229V21.3404H145V19.4263Z" fill="#878787"/>
<path d="M131.375 27.0385H143.021V22.3418H129.101V24.1915H140.85V25.3014H129.207V29.1094C129.207 29.6805 129.704 30.171 130.291 30.171H143.128V28.3213H131.375V27.0385Z" fill="#878787"/>
<path d="M144.446 16.2697H141.527C141.453 15.8474 141.408 15.4091 141.408 14.9427V12.7551H143.391V10.8411H128.838V12.7551H130.821V14.9427C130.821 15.4051 130.78 15.8474 130.702 16.2697H127.783V18.1837H144.442V16.2697H144.446ZM133.189 16.2697C133.115 15.8474 133.07 15.4091 133.07 14.9427V12.7551H139.154V14.9427C139.154 15.4051 139.113 15.8474 139.035 16.2697H133.189Z" fill="#878787"/>
</g>
<defs>
<linearGradient id="paint0_linear_123_9041" x1="5.14013" y1="11.4788" x2="-0.839349" y2="17.5848" gradientUnits="userSpaceOnUse">
<stop stop-color="#FBBA00"/>
<stop offset="1" stop-color="#CAC000"/>
</linearGradient>
<linearGradient id="paint1_linear_123_9041" x1="-1.14034" y1="21.8205" x2="3.98517" y2="27.0531" gradientUnits="userSpaceOnUse">
<stop stop-color="#CAC000"/>
<stop offset="1" stop-color="#86BC25"/>
</linearGradient>
<linearGradient id="paint2_linear_123_9041" x1="35.9995" y1="18.0036" x2="40.3581" y2="22.4533" gradientUnits="userSpaceOnUse">
<stop stop-color="#83D0F5"/>
<stop offset="1" stop-color="#00B3C4"/>
</linearGradient>
<linearGradient id="paint3_linear_123_9041" x1="41.3457" y1="25.4315" x2="36.9397" y2="29.9279" gradientUnits="userSpaceOnUse">
<stop stop-color="#00B3C4"/>
<stop offset="1" stop-color="#009A93"/>
</linearGradient>
<linearGradient id="paint4_linear_123_9041" x1="7.70951" y1="20.7556" x2="35.0684" y2="20.7556" gradientUnits="userSpaceOnUse">
<stop stop-color="#0069B4"/>
<stop offset="1" stop-color="#83D0F5"/>
</linearGradient>
<linearGradient id="paint5_linear_123_9041" x1="3.04657" y1="6.25133" x2="40.4018" y2="6.25133" gradientUnits="userSpaceOnUse">
<stop stop-color="#FBBA00"/>
<stop offset="0.64" stop-color="#EF7A08"/>
<stop offset="1" stop-color="#EA5B0C"/>
</linearGradient>
<linearGradient id="paint6_linear_123_9041" x1="4.26969" y1="33.8862" x2="35.6221" y2="33.8862" gradientUnits="userSpaceOnUse">
<stop stop-color="#86BC25"/>
<stop offset="1" stop-color="#009A93"/>
</linearGradient>
<clipPath id="clip0_123_9041">
<rect width="145" height="41" fill="white"/>
</clipPath>
</defs>
</svg>
