<svg width="80" height="80" viewBox="0 0 80 80" fill="none" xmlns="http://www.w3.org/2000/svg">
<path d="M77.0367 62.3669L46.5205 6.15428C45.1296 3.59172 42.4388 2 39.4972 2C36.5556 2 33.8649 3.59172 32.4739 6.15428L1.9578 62.3669C0.618126 64.8391 0.686535 67.746 2.14023 70.1562C3.59392 72.5607 6.15355 74 8.98682 74H70.019C72.8523 74 75.4119 72.5607 76.8656 70.1562C78.3193 67.7516 78.3877 64.8391 77.0423 62.3669H77.0367ZM71.1421 66.7695C70.9996 67.0066 70.6632 68.4017 70.0133 68.4017H7.98112C7.33124 68.4017 6.99489 68.0066 6.85237 67.7695C6.70986 67.5324 6.51603 67.0527 6.82387 66.4882L38.3457 8.28128C38.6706 7.68862 39.2065 7.59831 39.5029 7.59831C39.7994 7.59831 40.3352 7.68862 40.6602 8.28128L71.1763 66.4939C71.4841 67.0583 71.2903 67.5381 71.1478 67.7752L71.1421 66.7695Z" fill="#181615"/>
<path d="M39.5 68L36.5 59.5L42.5 57.5L68.5 68H39.5Z" fill="url(#paint0_linear_2027_59597)" fill-opacity="0.4"/>
<path d="M46.5 68.5L37.5 49.5L44.5 31L71 67L46.5 68.5Z" fill="url(#paint1_linear_2027_59597)" fill-opacity="0.4"/>
<path d="M41.3953 27.0007C49.9447 29.6459 40.6511 49.9045 40.6511 49.9045H37.1628C37.1628 49.9045 27.8225 29.6472 36.3721 27.0007C38.9922 26.1897 38.7751 26.19 41.3953 27.0007ZM39.0465 61.0007C37.8682 61.0007 36.8915 60.6372 36.1163 59.9101C35.3721 59.1514 35 58.2188 35 57.1123C35 56.0058 35.3721 55.0891 36.1163 54.362C36.8915 53.6032 37.8682 53.2239 39.0465 53.2239C40.1938 53.2239 41.1395 53.6032 41.8837 54.362C42.6279 55.0891 43 56.0058 43 57.1123C43 58.2188 42.6279 59.1514 41.8837 59.9101C41.1395 60.6372 40.1938 61.0007 39.0465 61.0007Z" fill="url(#paint2_linear_2027_59597)"/>
<defs>
<linearGradient id="paint0_linear_2027_59597" x1="96.358" y1="84.7692" x2="51.6282" y2="54.8958" gradientUnits="userSpaceOnUse">
<stop stop-color="white"/>
<stop offset="1" stop-color="#DDDDDD"/>
</linearGradient>
<linearGradient id="paint1_linear_2027_59597" x1="96.358" y1="74.7692" x2="51.6282" y2="44.8957" gradientUnits="userSpaceOnUse">
<stop stop-color="white"/>
<stop offset="1" stop-color="#DDDDDD"/>
</linearGradient>
<linearGradient id="paint2_linear_2027_59597" x1="33" y1="26" x2="39" y2="41.5" gradientUnits="userSpaceOnUse">
<stop stop-color="#B16CE6"/>
<stop offset="1" stop-color="#2C58CA"/>
</linearGradient>
</defs>
</svg>
