<svg width="36" height="37" viewBox="0 0 36 37" fill="none" xmlns="http://www.w3.org/2000/svg">
<path d="M16.75 14C16.75 14.5304 16.5525 15.0391 16.2008 15.4142C15.8492 15.7893 15.3723 16 14.875 16C14.3777 16 13.9008 15.7893 13.5492 15.4142C13.1975 15.0391 13 14.5304 13 14C13 13.4696 13.1975 12.9609 13.5492 12.5858C13.9008 12.2107 14.3777 12 14.875 12C15.3723 12 15.8492 12.2107 16.2008 12.5858C16.5525 12.9609 16.75 13.4696 16.75 14ZM21.125 16C21.3712 16 21.615 15.9483 21.8425 15.8478C22.07 15.7472 22.2767 15.5999 22.4508 15.4142C22.6249 15.2285 22.763 15.008 22.8573 14.7654C22.9515 14.5227 23 14.2626 23 14C23 13.7374 22.9515 13.4773 22.8573 13.2346C22.763 12.992 22.6249 12.7715 22.4508 12.5858C22.2767 12.4001 22.07 12.2528 21.8425 12.1522C21.615 12.0517 21.3712 12 21.125 12C20.6277 12 20.1508 12.2107 19.7992 12.5858C19.4475 12.9609 19.25 13.4696 19.25 14C19.25 14.5304 19.4475 15.0391 19.7992 15.4142C20.1508 15.7893 20.6277 16 21.125 16Z" fill="white"/>
<path fill-rule="evenodd" clip-rule="evenodd" d="M19.3 4.29167C19.3 3.9491 19.163 3.62056 18.9192 3.37832C18.6754 3.13609 18.3448 3 18 3C17.6552 3 17.3246 3.13609 17.0808 3.37832C16.837 3.62056 16.7 3.9491 16.7 4.29167V6.875H10.2C9.51044 6.875 8.84912 7.14717 8.36152 7.63164C7.87393 8.11611 7.6 8.77319 7.6 9.45833V17.2083C7.6 19.3525 8.6517 21.2513 10.2689 22.4267C8.66872 23.328 7.33789 24.6351 6.41224 26.2145C5.48659 27.7939 4.99926 29.589 5 31.4167V32.7083C5 33.0509 5.13696 33.3794 5.38076 33.6217C5.62456 33.8639 5.95522 34 6.3 34C6.64478 34 6.97544 33.8639 7.21924 33.6217C7.46304 33.3794 7.6 33.0509 7.6 32.7083V31.4167C7.6 29.3612 8.42178 27.39 9.88457 25.9366C11.3474 24.4832 13.3313 23.6667 15.4 23.6667H20.6C22.6687 23.6667 24.6526 24.4832 26.1154 25.9366C27.5782 27.39 28.4 29.3612 28.4 31.4167V32.7083C28.4 33.0509 28.537 33.3794 28.7808 33.6217C29.0246 33.8639 29.3552 34 29.7 34C30.0448 34 30.3754 33.8639 30.6192 33.6217C30.863 33.3794 31 33.0509 31 32.7083V31.4167C31.0007 29.589 30.5134 27.7939 29.5878 26.2145C28.6621 24.6351 27.3313 23.328 25.7311 22.4267C26.5587 21.8276 27.2319 21.0426 27.6957 20.1357C28.1596 19.2287 28.4009 18.2256 28.4 17.2083V9.45833C28.4 8.77319 28.1261 8.11611 27.6385 7.63164C27.1509 7.14717 26.4896 6.875 25.8 6.875H19.3V4.29167ZM25.8 17.2083C25.8 18.236 25.3891 19.2217 24.6577 19.9484C23.9263 20.6751 22.9343 21.0833 21.9 21.0833H14.1C13.0657 21.0833 12.0737 20.6751 11.3423 19.9484C10.6109 19.2217 10.2 18.236 10.2 17.2083V9.45833H25.8V17.2083Z" fill="white"/>
</svg>
