<svg width="36" height="37" viewBox="0 0 36 37" fill="none" xmlns="http://www.w3.org/2000/svg">
<path d="M15.5959 2.99584C16.9236 1.66805 19.0764 1.66805 20.4042 2.99584C21.732 4.32362 21.732 6.47637 20.4042 7.80416C19.0764 9.13194 16.9236 9.13194 15.5959 7.80416C14.2681 6.47637 14.2681 4.32362 15.5959 2.99584Z" stroke="white" stroke-width="1.5" stroke-linecap="round" stroke-linejoin="round"/>
<path d="M15.5959 30.1958C16.9236 28.8681 19.0764 28.8681 20.4042 30.1958C21.732 31.5236 21.732 33.6764 20.4042 35.0042C19.0764 36.3319 16.9236 36.3319 15.5959 35.0042C14.2681 33.6764 14.2681 31.5236 15.5959 30.1958Z" stroke="white" stroke-width="1.5" stroke-linecap="round" stroke-linejoin="round"/>
<path d="M1.99584 16.5957C3.32362 15.268 5.47638 15.268 6.80416 16.5957C8.13195 17.9235 8.13195 20.0763 6.80416 21.4041C5.47638 22.7318 3.32362 22.7318 1.99584 21.4041C0.668054 20.0763 0.668054 17.9235 1.99584 16.5957Z" stroke="white" stroke-width="1.5" stroke-linecap="round" stroke-linejoin="round"/>
<path d="M29.1958 16.5957C30.5236 15.268 32.6764 15.268 34.0042 16.5957C35.3319 17.9235 35.3319 20.0763 34.0042 21.4041C32.6764 22.7318 30.5236 22.7318 29.1958 21.4041C27.8681 20.0763 27.8681 17.9235 29.1958 16.5957Z" stroke="white" stroke-width="1.5" stroke-linecap="round" stroke-linejoin="round"/>
<path d="M6.95001 16.4501L15.45 7.95008M6.95002 21.55L14.6 29.2M21.4 29.2L29.05 21.5501M20.55 7.95008L29.05 16.45" stroke="white" stroke-width="1.5" stroke-linecap="round" stroke-linejoin="round"/>
<path d="M19.2016 20.7283L18.2613 23.5939C18.1785 23.8463 17.8215 23.8463 17.7387 23.5939L16.7984 20.7283C16.7166 20.4789 16.5211 20.2834 16.2717 20.2016L13.4061 19.2613C13.1537 19.1785 13.1537 18.8215 13.4061 18.7387L16.2717 17.7984C16.5211 17.7166 16.7166 17.5211 16.7984 17.2717L17.7387 14.4061C17.8215 14.1537 18.1785 14.1537 18.2613 14.4061L19.2016 17.2717C19.2834 17.5211 19.4789 17.7166 19.7283 17.7984L22.5939 18.7387C22.8463 18.8215 22.8463 19.1785 22.5939 19.2613L19.7283 20.2016C19.4789 20.2834 19.2834 20.4789 19.2016 20.7283Z" fill="white"/>
</svg>
